<svg xmlns="http://www.w3.org/2000/svg" width="1920" height="3000"><path d="M452,3335L-329,3366L644,3368Z" fill="#7a91a5" stroke="#7a91a5" stroke-width="1.51"/><path d="M650,-365L1230,-245L1676,-287Z" fill="#b0dbdd" stroke="#b0dbdd" stroke-width="1.51"/><path d="M2129,2447L1966,2795L2231,2450Z" fill="#1a6fad" stroke="#1a6fad" stroke-width="1.51"/><path d="M650,-365L1676,-287L2281,-373Z" fill="#a3c9da" stroke="#a3c9da" stroke-width="1.51"/><path d="M1676,-287L1936,-252L2281,-373Z" fill="#95b1cf" stroke="#95b1cf" stroke-width="1.51"/><path d="M2231,2450L1966,2795L2299,2885Z" fill="#1467a7" stroke="#1467a7" stroke-width="1.51"/><path d="M2266,2312L2231,2450L2299,2885Z" fill="#1a67a4" stroke="#1a67a4" stroke-width="1.51"/><path d="M2281,-373L2057,-136L2334,73Z" fill="#8c9fbc" stroke="#8c9fbc" stroke-width="1.51"/><path d="M1998,988L2257,994L2339,687Z" fill="#7196a9" stroke="#7196a9" stroke-width="1.51"/><path d="M2257,994L2308,1117L2339,687Z" fill="#6d90a2" stroke="#6d90a2" stroke-width="1.51"/><path d="M2159,1379L2105,1499L2347,1592Z" fill="#518dad" stroke="#518dad" stroke-width="1.51"/><path d="M2238,2037L2266,2312L2347,1592Z" fill="#327caf" stroke="#327caf" stroke-width="1.51"/><path d="M2235,1749L2238,2037L2347,1592Z" fill="#3f81ad" stroke="#3f81ad" stroke-width="1.51"/><path d="M2308,1117L2159,1379L2347,1592Z" fill="#578ba7" stroke="#578ba7" stroke-width="1.51"/><path d="M2266,2312L2299,2885L2347,1592Z" fill="#276fa7" stroke="#276fa7" stroke-width="1.51"/><path d="M2299,2885L2304,3127L2347,1592Z" fill="#1b65a0" stroke="#1b65a0" stroke-width="1.51"/><path d="M2339,687L2308,1117L2347,1592Z" fill="#638ba0" stroke="#638ba0" stroke-width="1.51"/><path d="M1930,609L2339,687L2364,400Z" fill="#7d9aae" stroke="#7d9aae" stroke-width="1.51"/><path d="M2097,291L1930,609L2364,400Z" fill="#81a0b6" stroke="#81a0b6" stroke-width="1.51"/><path d="M2265,134L2097,291L2364,400Z" fill="#829ab2" stroke="#829ab2" stroke-width="1.51"/><path d="M2334,73L2265,134L2364,400Z" fill="#8196af" stroke="#8196af" stroke-width="1.51"/><path d="M2339,687L2347,1592L2364,400Z" fill="#6d8da0" stroke="#6d8da0" stroke-width="1.51"/><path d="M2299,2885L1994,3020L2304,3127Z" fill="#0a599c" stroke="#0a599c" stroke-width="1.51"/><path d="M2057,-136L2265,134L2334,73Z" fill="#879eb9" stroke="#879eb9" stroke-width="1.51"/><path d="M1930,609L1998,988L2339,687Z" fill="#789fb2" stroke="#789fb2" stroke-width="1.51"/><path d="M2105,1499L2235,1749L2347,1592Z" fill="#4a89ad" stroke="#4a89ad" stroke-width="1.51"/><path d="M650,-365L1093,-246L1230,-245Z" fill="#b8e2d8" stroke="#b8e2d8" stroke-width="1.51"/><path d="M2238,2037L2014,2331L2266,2312Z" fill="#2979b0" stroke="#2979b0" stroke-width="1.51"/><path d="M2257,994L2013,1046L2308,1117Z" fill="#6a95a7" stroke="#6a95a7" stroke-width="1.51"/><path d="M2013,1046L2159,1379L2308,1117Z" fill="#6495ab" stroke="#6495ab" stroke-width="1.51"/><path d="M2235,1749L1933,1902L2238,2037Z" fill="#3a87b7" stroke="#3a87b7" stroke-width="1.51"/><path d="M1994,3020L2209,3259L2304,3127Z" fill="#0a5598" stroke="#0a5598" stroke-width="1.51"/><path d="M1966,2795L1994,3020L2299,2885Z" fill="#0964a7" stroke="#0964a7" stroke-width="1.51"/><path d="M1962,2040L2014,2331L2238,2037Z" fill="#2d83b8" stroke="#2d83b8" stroke-width="1.51"/><path d="M1936,-252L2057,-136L2281,-373Z" fill="#91a9c7" stroke="#91a9c7" stroke-width="1.51"/><path d="M1920,369L1930,609L2097,291Z" fill="#86aabe" stroke="#86aabe" stroke-width="1.51"/><path d="M1933,1902L1962,2040L2238,2037Z" fill="#348abe" stroke="#348abe" stroke-width="1.51"/><path d="M1872,126L2097,291L2265,134Z" fill="#88a6be" stroke="#88a6be" stroke-width="1.51"/><path d="M2057,-136L1872,126L2265,134Z" fill="#8ba7c2" stroke="#8ba7c2" stroke-width="1.51"/><path d="M2129,2447L2231,2450L2266,2312Z" fill="#2070aa" stroke="#2070aa" stroke-width="1.51"/><path d="M2014,2331L2129,2447L2266,2312Z" fill="#2275af" stroke="#2275af" stroke-width="1.51"/><path d="M2105,1499L2014,1517L2235,1749Z" fill="#4d90b4" stroke="#4d90b4" stroke-width="1.51"/><path d="M1998,988L2013,1046L2257,994Z" fill="#6f9cae" stroke="#6f9cae" stroke-width="1.51"/><path d="M2014,1517L1933,1902L2235,1749Z" fill="#4690b9" stroke="#4690b9" stroke-width="1.51"/><path d="M1858,2693L1966,2795L2129,2447Z" fill="#1873b2" stroke="#1873b2" stroke-width="1.51"/><path d="M1994,3020L1952,3320L2209,3259Z" fill="#09599c" stroke="#09599c" stroke-width="1.51"/><path d="M1920,369L1889,555L1930,609Z" fill="#85acbd" stroke="#85acbd" stroke-width="1.51"/><path d="M1756,1185L1890,1468L2013,1046Z" fill="#67a4b8" stroke="#67a4b8" stroke-width="1.51"/><path d="M2014,1517L2105,1499L2159,1379Z" fill="#5494b4" stroke="#5494b4" stroke-width="1.51"/><path d="M1890,1468L2014,1517L2159,1379Z" fill="#5699b8" stroke="#5699b8" stroke-width="1.51"/><path d="M2013,1046L1890,1468L2159,1379Z" fill="#609cb6" stroke="#609cb6" stroke-width="1.51"/><path d="M1793,1844L1933,1902L2014,1517Z" fill="#4697bf" stroke="#4697bf" stroke-width="1.51"/><path d="M1745,2479L1858,2693L2014,2331Z" fill="#227fb7" stroke="#227fb7" stroke-width="1.51"/><path d="M2014,2331L1858,2693L2129,2447Z" fill="#1d79b5" stroke="#1d79b5" stroke-width="1.51"/><path d="M1814,59L1872,126L2057,-136Z" fill="#8fb0c8" stroke="#8fb0c8" stroke-width="1.51"/><path d="M1872,126L1920,369L2097,291Z" fill="#89acc2" stroke="#89acc2" stroke-width="1.51"/><path d="M1930,609L1674,990L1998,988Z" fill="#79abb9" stroke="#79abb9" stroke-width="1.51"/><path d="M1890,1468L1793,1844L2014,1517Z" fill="#4f9cbd" stroke="#4f9cbd" stroke-width="1.51"/><path d="M1962,2040L1892,2021L2014,2331Z" fill="#3089be" stroke="#3089be" stroke-width="1.51"/><path d="M1936,-252L1814,59L2057,-136Z" fill="#92b1cb" stroke="#92b1cb" stroke-width="1.51"/><path d="M1734,1508L1658,1665L1793,1844Z" fill="#50a3c3" stroke="#50a3c3" stroke-width="1.51"/><path d="M1734,1508L1793,1844L1890,1468Z" fill="#52a1c0" stroke="#52a1c0" stroke-width="1.51"/><path d="M1762,565L1674,990L1930,609Z" fill="#81b1bd" stroke="#81b1bd" stroke-width="1.51"/><path d="M1817,2959L1743,3361L1952,3320Z" fill="#1564a2" stroke="#1564a2" stroke-width="1.51"/><path d="M1966,2795L1817,2959L1994,3020Z" fill="#106cae" stroke="#106cae" stroke-width="1.51"/><path d="M1817,2959L1952,3320L1994,3020Z" fill="#1165a5" stroke="#1165a5" stroke-width="1.51"/><path d="M1892,2021L1704,2389L2014,2331Z" fill="#2d89be" stroke="#2d89be" stroke-width="1.51"/><path d="M1704,2389L1745,2479L2014,2331Z" fill="#2885bb" stroke="#2885bb" stroke-width="1.51"/><path d="M1933,1902L1892,2021L1962,2040Z" fill="#3791c2" stroke="#3791c2" stroke-width="1.51"/><path d="M1998,988L1756,1185L2013,1046Z" fill="#6fa5b5" stroke="#6fa5b5" stroke-width="1.51"/><path d="M1674,990L1756,1185L1998,988Z" fill="#72abb8" stroke="#72abb8" stroke-width="1.51"/><path d="M1656,-182L1814,59L1936,-252Z" fill="#96b8cf" stroke="#96b8cf" stroke-width="1.51"/><path d="M1858,2693L1817,2959L1966,2795Z" fill="#1772b2" stroke="#1772b2" stroke-width="1.51"/><path d="M1756,1185L1660,1280L1890,1468Z" fill="#65a9bc" stroke="#65a9bc" stroke-width="1.51"/><path d="M1543,3135L1743,3361L1817,2959Z" fill="#1d6da9" stroke="#1d6da9" stroke-width="1.51"/><path d="M1633,1998L1704,2389L1892,2021Z" fill="#3694c3" stroke="#3694c3" stroke-width="1.51"/><path d="M1872,126L1576,215L1920,369Z" fill="#8eb6c7" stroke="#8eb6c7" stroke-width="1.51"/><path d="M1762,565L1889,555L1920,369Z" fill="#87b0bf" stroke="#87b0bf" stroke-width="1.51"/><path d="M1793,1844L1892,2021L1933,1902Z" fill="#3c95c3" stroke="#3c95c3" stroke-width="1.51"/><path d="M1676,-287L1656,-182L1936,-252Z" fill="#99bcd2" stroke="#99bcd2" stroke-width="1.51"/><path d="M1889,555L1762,565L1930,609Z" fill="#85afbd" stroke="#85afbd" stroke-width="1.51"/><path d="M1491,816L1674,990L1762,565Z" fill="#82b8bf" stroke="#82b8bf" stroke-width="1.51"/><path d="M1660,1280L1734,1508L1890,1468Z" fill="#5ea8be" stroke="#5ea8be" stroke-width="1.51"/><path d="M1576,215L1762,565L1920,369Z" fill="#8cb7c4" stroke="#8cb7c4" stroke-width="1.51"/><path d="M1745,2479L1663,2528L1858,2693Z" fill="#2582b9" stroke="#2582b9" stroke-width="1.51"/><path d="M1541,2835L1817,2959L1858,2693Z" fill="#1d79b5" stroke="#1d79b5" stroke-width="1.51"/><path d="M1793,1844L1633,1998L1892,2021Z" fill="#3d9ac6" stroke="#3d9ac6" stroke-width="1.51"/><path d="M1576,215L1525,506L1762,565Z" fill="#8ebec7" stroke="#8ebec7" stroke-width="1.51"/><path d="M1814,59L1576,215L1872,126Z" fill="#90b9ca" stroke="#90b9ca" stroke-width="1.51"/><path d="M1543,3135L1663,3363L1743,3361Z" fill="#1f6aa4" stroke="#1f6aa4" stroke-width="1.51"/><path d="M1535,596L1491,816L1762,565Z" fill="#89bcc3" stroke="#89bcc3" stroke-width="1.51"/><path d="M1663,2528L1541,2835L1858,2693Z" fill="#2481b9" stroke="#2481b9" stroke-width="1.51"/><path d="M1633,1998L1432,2215L1704,2389Z" fill="#399ac5" stroke="#399ac5" stroke-width="1.51"/><path d="M1658,1665L1614,1766L1793,1844Z" fill="#4ca4c5" stroke="#4ca4c5" stroke-width="1.51"/><path d="M1656,-182L1499,-54L1814,59Z" fill="#97c0d1" stroke="#97c0d1" stroke-width="1.51"/><path d="M1541,2835L1543,3135L1817,2959Z" fill="#2178b3" stroke="#2178b3" stroke-width="1.51"/><path d="M1499,-54L1576,215L1814,59Z" fill="#95c0cf" stroke="#95c0cf" stroke-width="1.51"/><path d="M1614,1766L1633,1998L1793,1844Z" fill="#45a1c7" stroke="#45a1c7" stroke-width="1.51"/><path d="M1674,990L1492,1118L1756,1185Z" fill="#74b4bc" stroke="#74b4bc" stroke-width="1.51"/><path d="M1525,506L1535,596L1762,565Z" fill="#8cbdc4" stroke="#8cbdc4" stroke-width="1.51"/><path d="M1492,1118L1660,1280L1756,1185Z" fill="#6fb2be" stroke="#6fb2be" stroke-width="1.51"/><path d="M1660,1280L1376,1477L1734,1508Z" fill="#62b1c2" stroke="#62b1c2" stroke-width="1.51"/><path d="M1704,2389L1663,2528L1745,2479Z" fill="#2989bd" stroke="#2989bd" stroke-width="1.51"/><path d="M1406,2648L1541,2835L1663,2528Z" fill="#2d8abe" stroke="#2d8abe" stroke-width="1.51"/><path d="M1376,1477L1658,1665L1734,1508Z" fill="#5baec5" stroke="#5baec5" stroke-width="1.51"/><path d="M1432,2215L1663,2528L1704,2389Z" fill="#3292c2" stroke="#3292c2" stroke-width="1.51"/><path d="M1541,2835L1383,2992L1543,3135Z" fill="#2a7fb6" stroke="#2a7fb6" stroke-width="1.51"/><path d="M1499,-54L1410,78L1576,215Z" fill="#9ac8d2" stroke="#9ac8d2" stroke-width="1.51"/><path d="M1385,358L1525,506L1576,215Z" fill="#94c6cc" stroke="#94c6cc" stroke-width="1.51"/><path d="M1432,2215L1326,2298L1663,2528Z" fill="#399ac5" stroke="#399ac5" stroke-width="1.51"/><path d="M1326,2298L1406,2648L1663,2528Z" fill="#3595c3" stroke="#3595c3" stroke-width="1.51"/><path d="M1543,3135L1414,3363L1663,3363Z" fill="#2670a7" stroke="#2670a7" stroke-width="1.51"/><path d="M1230,-245L1656,-182L1676,-287Z" fill="#a1c9d9" stroke="#a1c9d9" stroke-width="1.51"/><path d="M1230,-245L1499,-54L1656,-182Z" fill="#a1ccd8" stroke="#a1ccd8" stroke-width="1.51"/><path d="M1491,816L1492,1118L1674,990Z" fill="#7dbbbf" stroke="#7dbbbf" stroke-width="1.51"/><path d="M1614,1766L1281,1845L1633,1998Z" fill="#4caacc" stroke="#4caacc" stroke-width="1.51"/><path d="M1492,1118L1376,1477L1660,1280Z" fill="#6db7c2" stroke="#6db7c2" stroke-width="1.51"/><path d="M1376,1477L1614,1766L1658,1665Z" fill="#58afc7" stroke="#58afc7" stroke-width="1.51"/><path d="M1491,816L1418,1099L1492,1118Z" fill="#7ebfc1" stroke="#7ebfc1" stroke-width="1.51"/><path d="M1376,1477L1247,1732L1614,1766Z" fill="#5cb5cb" stroke="#5cb5cb" stroke-width="1.51"/><path d="M1286,2028L1432,2215L1633,1998Z" fill="#45a7cd" stroke="#45a7cd" stroke-width="1.51"/><path d="M1281,1845L1286,2028L1633,1998Z" fill="#4baed1" stroke="#4baed1" stroke-width="1.51"/><path d="M1351,879L1418,1099L1491,816Z" fill="#83c3c3" stroke="#83c3c3" stroke-width="1.51"/><path d="M1410,78L1407,162L1576,215Z" fill="#99c9d2" stroke="#99c9d2" stroke-width="1.51"/><path d="M1247,1732L1281,1845L1614,1766Z" fill="#56b4ce" stroke="#56b4ce" stroke-width="1.51"/><path d="M650,-365L929,-246L1093,-246Z" fill="#bde5d6" stroke="#bde5d6" stroke-width="1.51"/><path d="M1418,1099L1376,1477L1492,1118Z" fill="#74bec4" stroke="#74bec4" stroke-width="1.51"/><path d="M1381,667L1491,816L1535,596Z" fill="#8cc3c6" stroke="#8cc3c6" stroke-width="1.51"/><path d="M1406,2648L1360,2770L1541,2835Z" fill="#318cbf" stroke="#318cbf" stroke-width="1.51"/><path d="M1407,162L1385,358L1576,215Z" fill="#97c9d0" stroke="#97c9d0" stroke-width="1.51"/><path d="M1326,2298L1194,2427L1406,2648Z" fill="#3e9fc8" stroke="#3e9fc8" stroke-width="1.51"/><path d="M1179,1245L1376,1477L1418,1099Z" fill="#75c3c8" stroke="#75c3c8" stroke-width="1.51"/><path d="M1360,2770L1383,2992L1541,2835Z" fill="#2f88bd" stroke="#2f88bd" stroke-width="1.51"/><path d="M1383,2992L1414,3363L1543,3135Z" fill="#2c7ab0" stroke="#2c7ab0" stroke-width="1.51"/><path d="M1194,2427L1194,2523L1406,2648Z" fill="#419dc6" stroke="#419dc6" stroke-width="1.51"/><path d="M1525,506L1381,667L1535,596Z" fill="#8fc4c7" stroke="#8fc4c7" stroke-width="1.51"/><path d="M1112,3191L644,3368L1414,3363Z" fill="#4883a8" stroke="#4883a8" stroke-width="1.51"/><path d="M1385,358L1381,667L1525,506Z" fill="#93c8ca" stroke="#93c8ca" stroke-width="1.51"/><path d="M1383,2992L1112,3191L1414,3363Z" fill="#3481b3" stroke="#3481b3" stroke-width="1.51"/><path d="M1230,-245L1410,78L1499,-54Z" fill="#a2d0d9" stroke="#a2d0d9" stroke-width="1.51"/><path d="M1381,667L1351,879L1491,816Z" fill="#8ac5c6" stroke="#8ac5c6" stroke-width="1.51"/><path d="M1177,2980L1112,3191L1383,2992Z" fill="#3d89b7" stroke="#3d89b7" stroke-width="1.51"/><path d="M1079,435L1381,667L1385,358Z" fill="#99d0ce" stroke="#99d0ce" stroke-width="1.51"/><path d="M1286,2028L1326,2298L1432,2215Z" fill="#46a8ce" stroke="#46a8ce" stroke-width="1.51"/><path d="M1360,2770L1177,2980L1383,2992Z" fill="#358dc0" stroke="#358dc0" stroke-width="1.51"/><path d="M1009,192L1385,358L1407,162Z" fill="#9fd3d3" stroke="#9fd3d3" stroke-width="1.51"/><path d="M1230,-245L962,-77L1410,78Z" fill="#a9d8d9" stroke="#a9d8d9" stroke-width="1.51"/><path d="M1351,879L1179,1245L1418,1099Z" fill="#80c7c5" stroke="#80c7c5" stroke-width="1.51"/><path d="M962,-77L1009,192L1410,78Z" fill="#a9d9d4" stroke="#a9d9d4" stroke-width="1.51"/><path d="M1109,1617L1247,1732L1376,1477Z" fill="#66bfcc" stroke="#66bfcc" stroke-width="1.51"/><path d="M1009,192L1407,162L1410,78Z" fill="#a1d4d5" stroke="#a1d4d5" stroke-width="1.51"/><path d="M1194,2523L1360,2770L1406,2648Z" fill="#3997c4" stroke="#3997c4" stroke-width="1.51"/><path d="M1016,856L1179,1245L1351,879Z" fill="#8acdc2" stroke="#8acdc2" stroke-width="1.51"/><path d="M1101,2854L1177,2980L1360,2770Z" fill="#4091bf" stroke="#4091bf" stroke-width="1.51"/><path d="M1179,1245L1053,1454L1376,1477Z" fill="#74c5c8" stroke="#74c5c8" stroke-width="1.51"/><path d="M1027,681L1351,879L1381,667Z" fill="#91cec9" stroke="#91cec9" stroke-width="1.51"/><path d="M1079,435L1027,681L1381,667Z" fill="#9cd4c9" stroke="#9cd4c9" stroke-width="1.51"/><path d="M1009,192L1079,435L1385,358Z" fill="#a3d6cf" stroke="#a3d6cf" stroke-width="1.51"/><path d="M1027,681L1016,856L1351,879Z" fill="#94d2c4" stroke="#94d2c4" stroke-width="1.51"/><path d="M1053,1454L1109,1617L1376,1477Z" fill="#6fc3c9" stroke="#6fc3c9" stroke-width="1.51"/><path d="M1194,2523L1101,2854L1360,2770Z" fill="#4198c1" stroke="#4198c1" stroke-width="1.51"/><path d="M1093,-246L962,-77L1230,-245Z" fill="#b1ddd9" stroke="#b1ddd9" stroke-width="1.51"/><path d="M1286,2028L1137,1970L1326,2298Z" fill="#4fafcf" stroke="#4fafcf" stroke-width="1.51"/><path d="M1281,1845L1137,1970L1286,2028Z" fill="#56b6d1" stroke="#56b6d1" stroke-width="1.51"/><path d="M901,2167L1194,2427L1326,2298Z" fill="#52abc8" stroke="#52abc8" stroke-width="1.51"/><path d="M1137,1970L901,2167L1326,2298Z" fill="#57b2cb" stroke="#57b2cb" stroke-width="1.51"/><path d="M861,3167L644,3368L1112,3191Z" fill="#568aa7" stroke="#568aa7" stroke-width="1.51"/><path d="M1023,1735L1137,1970L1247,1732Z" fill="#64bdcd" stroke="#64bdcd" stroke-width="1.51"/><path d="M1247,1732L1137,1970L1281,1845Z" fill="#5cb9cf" stroke="#5cb9cf" stroke-width="1.51"/><path d="M1016,856L950,1252L1179,1245Z" fill="#8bd0c0" stroke="#8bd0c0" stroke-width="1.51"/><path d="M901,2167L936,2425L1194,2427Z" fill="#5aaec4" stroke="#5aaec4" stroke-width="1.51"/><path d="M1109,1617L1023,1735L1247,1732Z" fill="#6ac1cb" stroke="#6ac1cb" stroke-width="1.51"/><path d="M814,2514L1101,2854L1194,2523Z" fill="#52a1bf" stroke="#52a1bf" stroke-width="1.51"/><path d="M100,3278L-329,3366L452,3335Z" fill="#7f94ac" stroke="#7f94ac" stroke-width="1.51"/><path d="M814,2514L861,2836L1101,2854Z" fill="#59a0bc" stroke="#59a0bc" stroke-width="1.51"/><path d="M950,1252L1053,1454L1179,1245Z" fill="#80ccc3" stroke="#80ccc3" stroke-width="1.51"/><path d="M936,2425L814,2514L1194,2523Z" fill="#58a8c1" stroke="#58a8c1" stroke-width="1.51"/><path d="M936,2425L1194,2523L1194,2427Z" fill="#50a6c4" stroke="#50a6c4" stroke-width="1.51"/><path d="M861,3167L1112,3191L1177,2980Z" fill="#4a8cb1" stroke="#4a8cb1" stroke-width="1.51"/><path d="M1101,2854L861,3167L1177,2980Z" fill="#4c91b6" stroke="#4c91b6" stroke-width="1.51"/><path d="M830,871L950,1252L1016,856Z" fill="#96d5bd" stroke="#96d5bd" stroke-width="1.51"/><path d="M861,2836L861,3167L1101,2854Z" fill="#5497b6" stroke="#5497b6" stroke-width="1.51"/><path d="M1023,1735L901,2167L1137,1970Z" fill="#64becd" stroke="#64becd" stroke-width="1.51"/><path d="M665,1984L901,2167L1023,1735Z" fill="#70c2ca" stroke="#70c2ca" stroke-width="1.51"/><path d="M658,1936L665,1984L1023,1735Z" fill="#79c6c7" stroke="#79c6c7" stroke-width="1.51"/><path d="M1009,192L867,230L1079,435Z" fill="#abddcc" stroke="#abddcc" stroke-width="1.51"/><path d="M784,489L1027,681L1079,435Z" fill="#a6dbc5" stroke="#a6dbc5" stroke-width="1.51"/><path d="M929,-246L962,-77L1093,-246Z" fill="#b5e1d6" stroke="#b5e1d6" stroke-width="1.51"/><path d="M1053,1454L849,1520L1109,1617Z" fill="#78c9c6" stroke="#78c9c6" stroke-width="1.51"/><path d="M743,1736L658,1936L1023,1735Z" fill="#7bc7c6" stroke="#7bc7c6" stroke-width="1.51"/><path d="M849,1520L1023,1735L1109,1617Z" fill="#75c7c7" stroke="#75c7c7" stroke-width="1.51"/><path d="M950,1252L871,1358L1053,1454Z" fill="#83cec2" stroke="#83cec2" stroke-width="1.51"/><path d="M738,3001L861,3167L861,2836Z" fill="#5e97b1" stroke="#5e97b1" stroke-width="1.51"/><path d="M962,-77L797,15L1009,192Z" fill="#b3e1cf" stroke="#b3e1cf" stroke-width="1.51"/><path d="M867,230L784,489L1079,435Z" fill="#acdec8" stroke="#acdec8" stroke-width="1.51"/><path d="M830,871L688,974L950,1252Z" fill="#9bd8ba" stroke="#9bd8ba" stroke-width="1.51"/><path d="M816,763L1016,856L1027,681Z" fill="#9ed8c1" stroke="#9ed8c1" stroke-width="1.51"/><path d="M871,1358L849,1520L1053,1454Z" fill="#81cec3" stroke="#81cec3" stroke-width="1.51"/><path d="M797,15L867,230L1009,192Z" fill="#b3e1cc" stroke="#b3e1cc" stroke-width="1.51"/><path d="M816,763L830,871L1016,856Z" fill="#9fd9bf" stroke="#9fd9bf" stroke-width="1.51"/><path d="M849,1520L743,1736L1023,1735Z" fill="#7bc9c5" stroke="#7bc9c5" stroke-width="1.51"/><path d="M784,489L816,763L1027,681Z" fill="#a8dcc2" stroke="#a8dcc2" stroke-width="1.51"/><path d="M901,2167L710,2380L936,2425Z" fill="#67b2c1" stroke="#67b2c1" stroke-width="1.51"/><path d="M688,974L645,1218L950,1252Z" fill="#9ad7bb" stroke="#9ad7bb" stroke-width="1.51"/><path d="M929,-246L797,15L962,-77Z" fill="#b8e3d2" stroke="#b8e3d2" stroke-width="1.51"/><path d="M645,1218L871,1358L950,1252Z" fill="#90d3be" stroke="#90d3be" stroke-width="1.51"/><path d="M650,-365L797,15L929,-246Z" fill="#c1e7d2" stroke="#c1e7d2" stroke-width="1.51"/><path d="M710,2380L814,2514L936,2425Z" fill="#66afbf" stroke="#66afbf" stroke-width="1.51"/><path d="M483,2736L665,2907L814,2514Z" fill="#6fa7b6" stroke="#6fa7b6" stroke-width="1.51"/><path d="M814,2514L665,2907L861,2836Z" fill="#65a3b8" stroke="#65a3b8" stroke-width="1.51"/><path d="M665,1984L710,2380L901,2167Z" fill="#72bcc3" stroke="#72bcc3" stroke-width="1.51"/><path d="M-162,-299L348,-216L650,-365Z" fill="#dff2d8" stroke="#dff2d8" stroke-width="1.51"/><path d="M581,190L580,461L784,489Z" fill="#bce5c2" stroke="#bce5c2" stroke-width="1.51"/><path d="M650,-365L564,18L797,15Z" fill="#c6e9ce" stroke="#c6e9ce" stroke-width="1.51"/><path d="M663,1678L743,1736L849,1520Z" fill="#84cdc2" stroke="#84cdc2" stroke-width="1.51"/><path d="M665,2907L738,3001L861,2836Z" fill="#649db5" stroke="#649db5" stroke-width="1.51"/><path d="M797,15L581,190L867,230Z" fill="#bbe4c9" stroke="#bbe4c9" stroke-width="1.51"/><path d="M581,190L784,489L867,230Z" fill="#b8e3c6" stroke="#b8e3c6" stroke-width="1.51"/><path d="M513,1342L849,1520L871,1358Z" fill="#8fd2be" stroke="#8fd2be" stroke-width="1.51"/><path d="M645,1218L513,1342L871,1358Z" fill="#98d6bb" stroke="#98d6bb" stroke-width="1.51"/><path d="M569,2478L483,2736L814,2514Z" fill="#73adb9" stroke="#73adb9" stroke-width="1.51"/><path d="M784,489L508,723L816,763Z" fill="#b1e0bd" stroke="#b1e0bd" stroke-width="1.51"/><path d="M738,3001L644,3368L861,3167Z" fill="#6190a8" stroke="#6190a8" stroke-width="1.51"/><path d="M513,1342L663,1678L849,1520Z" fill="#8ed2be" stroke="#8ed2be" stroke-width="1.51"/><path d="M580,461L508,723L784,489Z" fill="#b9e4bd" stroke="#b9e4bd" stroke-width="1.51"/><path d="M816,763L688,974L830,871Z" fill="#a4dbbb" stroke="#a4dbbb" stroke-width="1.51"/><path d="M481,-39L564,18L650,-365Z" fill="#ccebce" stroke="#ccebce" stroke-width="1.51"/><path d="M564,18L581,190L797,15Z" fill="#c2e7c9" stroke="#c2e7c9" stroke-width="1.51"/><path d="M508,723L688,974L816,763Z" fill="#addfba" stroke="#addfba" stroke-width="1.51"/><path d="M710,2380L569,2478L814,2514Z" fill="#70b1bc" stroke="#70b1bc" stroke-width="1.51"/><path d="M665,1984L350,2177L710,2380Z" fill="#7fbfc1" stroke="#7fbfc1" stroke-width="1.51"/><path d="M397,3087L644,3368L738,3001Z" fill="#6c95a7" stroke="#6c95a7" stroke-width="1.51"/><path d="M397,3087L452,3335L644,3368Z" fill="#6f91a4" stroke="#6f91a4" stroke-width="1.51"/><path d="M597,2926L397,3087L738,3001Z" fill="#6f9cae" stroke="#6f9cae" stroke-width="1.51"/><path d="M663,1678L658,1936L743,1736Z" fill="#84cbc3" stroke="#84cbc3" stroke-width="1.51"/><path d="M350,2177L569,2478L710,2380Z" fill="#7db9be" stroke="#7db9be" stroke-width="1.51"/><path d="M665,2907L597,2926L738,3001Z" fill="#6a9db2" stroke="#6a9db2" stroke-width="1.51"/><path d="M348,-216L481,-39L650,-365Z" fill="#d2eed1" stroke="#d2eed1" stroke-width="1.51"/><path d="M513,1342L405,1686L663,1678Z" fill="#95d4c0" stroke="#95d4c0" stroke-width="1.51"/><path d="M423,1869L658,1936L663,1678Z" fill="#89ccc3" stroke="#89ccc3" stroke-width="1.51"/><path d="M483,2736L597,2926L665,2907Z" fill="#71a3b3" stroke="#71a3b3" stroke-width="1.51"/><path d="M394,983L645,1218L688,974Z" fill="#a9ddb6" stroke="#a9ddb6" stroke-width="1.51"/><path d="M350,2177L322,2358L569,2478Z" fill="#84bbc1" stroke="#84bbc1" stroke-width="1.51"/><path d="M394,983L368,1149L645,1218Z" fill="#abdeba" stroke="#abdeba" stroke-width="1.51"/><path d="M405,1686L423,1869L663,1678Z" fill="#91d0c3" stroke="#91d0c3" stroke-width="1.51"/><path d="M508,723L394,983L688,974Z" fill="#b2e1b9" stroke="#b2e1b9" stroke-width="1.51"/><path d="M429,2544L483,2736L569,2478Z" fill="#7bb0ba" stroke="#7bb0ba" stroke-width="1.51"/><path d="M658,1936L423,1869L665,1984Z" fill="#86c9c5" stroke="#86c9c5" stroke-width="1.51"/><path d="M423,1869L350,2177L665,1984Z" fill="#89c9c7" stroke="#89c9c7" stroke-width="1.51"/><path d="M364,228L580,461L581,190Z" fill="#c5e9c5" stroke="#c5e9c5" stroke-width="1.51"/><path d="M368,1149L513,1342L645,1218Z" fill="#a4dbbb" stroke="#a4dbbb" stroke-width="1.51"/><path d="M367,794L394,983L508,723Z" fill="#b9e4bc" stroke="#b9e4bc" stroke-width="1.51"/><path d="M364,228L386,465L580,461Z" fill="#c6e9c4" stroke="#c6e9c4" stroke-width="1.51"/><path d="M386,465L508,723L580,461Z" fill="#c0e7bf" stroke="#c0e7bf" stroke-width="1.51"/><path d="M564,18L364,228L581,190Z" fill="#c9eac9" stroke="#c9eac9" stroke-width="1.51"/><path d="M483,2736L397,3087L597,2926Z" fill="#75a2b4" stroke="#75a2b4" stroke-width="1.51"/><path d="M-162,-299L28,-187L348,-216Z" fill="#e3f4dc" stroke="#e3f4dc" stroke-width="1.51"/><path d="M346,1306L405,1686L513,1342Z" fill="#a0d9c0" stroke="#a0d9c0" stroke-width="1.51"/><path d="M481,-39L364,228L564,18Z" fill="#ccebcb" stroke="#ccebcb" stroke-width="1.51"/><path d="M322,2358L429,2544L569,2478Z" fill="#7fb6be" stroke="#7fb6be" stroke-width="1.51"/><path d="M368,1149L346,1306L513,1342Z" fill="#a8dcbe" stroke="#a8dcbe" stroke-width="1.51"/><path d="M346,1306L115,1480L405,1686Z" fill="#a5dbc4" stroke="#a5dbc4" stroke-width="1.51"/><path d="M117,3064L397,3087L483,2736Z" fill="#7da2b5" stroke="#7da2b5" stroke-width="1.51"/><path d="M54,2727L117,3064L483,2736Z" fill="#84aabc" stroke="#84aabc" stroke-width="1.51"/><path d="M386,465L367,794L508,723Z" fill="#c0e6bf" stroke="#c0e6bf" stroke-width="1.51"/><path d="M157,678L367,794L386,465Z" fill="#c6e8c2" stroke="#c6e8c2" stroke-width="1.51"/><path d="M155,-22L364,228L481,-39Z" fill="#d3eecf" stroke="#d3eecf" stroke-width="1.51"/><path d="M429,2544L54,2727L483,2736Z" fill="#82afbd" stroke="#82afbd" stroke-width="1.51"/><path d="M348,-216L155,-22L481,-39Z" fill="#d7f0d2" stroke="#d7f0d2" stroke-width="1.51"/><path d="M115,1480L109,1590L405,1686Z" fill="#a5d9c8" stroke="#a5d9c8" stroke-width="1.51"/><path d="M405,1686L223,1770L423,1869Z" fill="#97d2c7" stroke="#97d2c7" stroke-width="1.51"/><path d="M223,1770L350,2177L423,1869Z" fill="#93ceca" stroke="#93ceca" stroke-width="1.51"/><path d="M397,3087L100,3278L452,3335Z" fill="#7996a9" stroke="#7996a9" stroke-width="1.51"/><path d="M223,1770L161,2207L350,2177Z" fill="#95cbcb" stroke="#95cbcb" stroke-width="1.51"/><path d="M367,794L254,915L394,983Z" fill="#bbe5bd" stroke="#bbe5bd" stroke-width="1.51"/><path d="M322,2358L44,2445L429,2544Z" fill="#89b9c3" stroke="#89b9c3" stroke-width="1.51"/><path d="M44,2445L54,2727L429,2544Z" fill="#8ab6c3" stroke="#8ab6c3" stroke-width="1.51"/><path d="M364,228L109,260L386,465Z" fill="#d0edca" stroke="#d0edca" stroke-width="1.51"/><path d="M117,3064L100,3278L397,3087Z" fill="#7f9cb0" stroke="#7f9cb0" stroke-width="1.51"/><path d="M109,260L90,474L386,465Z" fill="#d1edca" stroke="#d1edca" stroke-width="1.51"/><path d="M254,915L368,1149L394,983Z" fill="#b7e3bb" stroke="#b7e3bb" stroke-width="1.51"/><path d="M109,1590L223,1770L405,1686Z" fill="#a1d6c8" stroke="#a1d6c8" stroke-width="1.51"/><path d="M254,915L142,1138L368,1149Z" fill="#b9e4bd" stroke="#b9e4bd" stroke-width="1.51"/><path d="M90,474L157,678L386,465Z" fill="#ceecc7" stroke="#ceecc7" stroke-width="1.51"/><path d="M155,-22L109,260L364,228Z" fill="#d6efd0" stroke="#d6efd0" stroke-width="1.51"/><path d="M62,2192L161,2207L223,1770Z" fill="#97ccce" stroke="#97ccce" stroke-width="1.51"/><path d="M161,2207L322,2358L350,2177Z" fill="#8ec2c6" stroke="#8ec2c6" stroke-width="1.51"/><path d="M142,1138L346,1306L368,1149Z" fill="#b1e1bf" stroke="#b1e1bf" stroke-width="1.51"/><path d="M157,678L254,915L367,794Z" fill="#c3e8c1" stroke="#c3e8c1" stroke-width="1.51"/><path d="M28,-187L155,-22L348,-216Z" fill="#def2d7" stroke="#def2d7" stroke-width="1.51"/><path d="M142,1138L115,1480L346,1306Z" fill="#b0e0c3" stroke="#b0e0c3" stroke-width="1.51"/><path d="M161,2207L44,2445L322,2358Z" fill="#8fbfc7" stroke="#8fbfc7" stroke-width="1.51"/><path d="M-8,1389L115,1480L142,1138Z" fill="#b2e1c7" stroke="#b2e1c7" stroke-width="1.51"/><path d="M-209,1928L17,2191L223,1770Z" fill="#9ed2d4" stroke="#9ed2d4" stroke-width="1.51"/><path d="M-5,1695L-209,1928L223,1770Z" fill="#a3d6d2" stroke="#a3d6d2" stroke-width="1.51"/><path d="M17,2191L62,2192L223,1770Z" fill="#99cdd0" stroke="#99cdd0" stroke-width="1.51"/><path d="M157,678L-112,860L254,915Z" fill="#c7e9c5" stroke="#c7e9c5" stroke-width="1.51"/><path d="M-112,860L142,1138L254,915Z" fill="#c1e7c3" stroke="#c1e7c3" stroke-width="1.51"/><path d="M-112,860L-44,1145L142,1138Z" fill="#c1e7c5" stroke="#c1e7c5" stroke-width="1.51"/><path d="M62,2192L44,2445L161,2207Z" fill="#92c3cb" stroke="#92c3cb" stroke-width="1.51"/><path d="M109,1590L-5,1695L223,1770Z" fill="#a4d8cc" stroke="#a4d8cc" stroke-width="1.51"/><path d="M-419,-46L-219,-232L-162,-299Z" fill="#edf8e6" stroke="#edf8e6" stroke-width="1.51"/><path d="M17,2191L44,2445L62,2192Z" fill="#94c3cc" stroke="#94c3cc" stroke-width="1.51"/><path d="M-1,510L8,636L90,474Z" fill="#d3eecc" stroke="#d3eecc" stroke-width="1.51"/><path d="M-123,3199L-329,3366L100,3278Z" fill="#8599b3" stroke="#8599b3" stroke-width="1.51"/><path d="M-124,-99L-162,287L109,260Z" fill="#def2d8" stroke="#def2d8" stroke-width="1.51"/><path d="M54,2727L-149,2939L117,3064Z" fill="#88a9c1" stroke="#88a9c1" stroke-width="1.51"/><path d="M-44,1145L-8,1389L142,1138Z" fill="#b9e3c7" stroke="#b9e3c7" stroke-width="1.51"/><path d="M-124,-99L109,260L155,-22Z" fill="#ddf2d7" stroke="#ddf2d7" stroke-width="1.51"/><path d="M8,636L-112,860L157,678Z" fill="#cdebc9" stroke="#cdebc9" stroke-width="1.51"/><path d="M90,474L8,636L157,678Z" fill="#d0edca" stroke="#d0edca" stroke-width="1.51"/><path d="M-123,3199L100,3278L117,3064Z" fill="#839cb4" stroke="#839cb4" stroke-width="1.51"/><path d="M28,-187L-124,-99L155,-22Z" fill="#e1f4dc" stroke="#e1f4dc" stroke-width="1.51"/><path d="M17,2191L-49,2208L44,2445Z" fill="#95c4ce" stroke="#95c4ce" stroke-width="1.51"/><path d="M-1,510L90,474L109,260Z" fill="#d5eece" stroke="#d5eece" stroke-width="1.51"/><path d="M-209,1928L-49,2208L17,2191Z" fill="#9cccd4" stroke="#9cccd4" stroke-width="1.51"/><path d="M-162,287L-1,510L109,260Z" fill="#d9f0d2" stroke="#d9f0d2" stroke-width="1.51"/><path d="M-8,1389L109,1590L115,1480Z" fill="#acddca" stroke="#acddca" stroke-width="1.51"/><path d="M-149,2939L-123,3199L117,3064Z" fill="#87a2bb" stroke="#87a2bb" stroke-width="1.51"/><path d="M44,2445L-202,2469L54,2727Z" fill="#90b9c9" stroke="#90b9c9" stroke-width="1.51"/><path d="M-8,1389L-5,1695L109,1590Z" fill="#aadccd" stroke="#aadccd" stroke-width="1.51"/><path d="M-202,2469L-192,2743L54,2727Z" fill="#90b5ca" stroke="#90b5ca" stroke-width="1.51"/><path d="M-8,1389L-248,1668L-5,1695Z" fill="#adddd1" stroke="#adddd1" stroke-width="1.51"/><path d="M-49,2208L-202,2469L44,2445Z" fill="#94c0ce" stroke="#94c0ce" stroke-width="1.51"/><path d="M-192,2743L-149,2939L54,2727Z" fill="#8dafc6" stroke="#8dafc6" stroke-width="1.51"/><path d="M-315,1471L-248,1668L-8,1389Z" fill="#b3e0d2" stroke="#b3e0d2" stroke-width="1.51"/><path d="M-112,860L-264,996L-44,1145Z" fill="#c7e9ca" stroke="#c7e9ca" stroke-width="1.51"/><path d="M-162,-299L-124,-99L28,-187Z" fill="#e7f6e1" stroke="#e7f6e1" stroke-width="1.51"/><path d="M-359,141L-162,287L-124,-99Z" fill="#e4f5de" stroke="#e4f5de" stroke-width="1.51"/><path d="M-44,1145L-245,1126L-8,1389Z" fill="#bce5cb" stroke="#bce5cb" stroke-width="1.51"/><path d="M-248,1668L-209,1928L-5,1695Z" fill="#aad9d6" stroke="#aad9d6" stroke-width="1.51"/><path d="M-322,385L-348,750L-1,510Z" fill="#daf1d4" stroke="#daf1d4" stroke-width="1.51"/><path d="M-1,510L-348,750L8,636Z" fill="#d4eecf" stroke="#d4eecf" stroke-width="1.51"/><path d="M-348,750L-112,860L8,636Z" fill="#d1edce" stroke="#d1edce" stroke-width="1.51"/><path d="M-300,2272L-202,2469L-49,2208Z" fill="#9ac4d3" stroke="#9ac4d3" stroke-width="1.51"/><path d="M-264,996L-245,1126L-44,1145Z" fill="#c5e8cb" stroke="#c5e8cb" stroke-width="1.51"/><path d="M-245,1126L-315,1471L-8,1389Z" fill="#bbe4cf" stroke="#bbe4cf" stroke-width="1.51"/><path d="M-162,287L-322,385L-1,510Z" fill="#dcf2d6" stroke="#dcf2d6" stroke-width="1.51"/><path d="M-202,2469L-305,2584L-192,2743Z" fill="#95b9ce" stroke="#95b9ce" stroke-width="1.51"/><path d="M-162,-299L-219,-232L-124,-99Z" fill="#eaf7e3" stroke="#eaf7e3" stroke-width="1.51"/><path d="M-209,1928L-358,2030L-49,2208Z" fill="#a1d0d8" stroke="#a1d0d8" stroke-width="1.51"/><path d="M-358,2030L-300,2272L-49,2208Z" fill="#9fccd7" stroke="#9fccd7" stroke-width="1.51"/><path d="M-419,-46L-359,141L-124,-99Z" fill="#e9f7e3" stroke="#e9f7e3" stroke-width="1.51"/><path d="M-149,2939L-440,3108L-123,3199Z" fill="#8ca4c0" stroke="#8ca4c0" stroke-width="1.51"/><path d="M-348,750L-264,996L-112,860Z" fill="#cfedcf" stroke="#cfedcf" stroke-width="1.51"/><path d="M-440,3108L-329,3366L-123,3199Z" fill="#8b9ebb" stroke="#8b9ebb" stroke-width="1.51"/><path d="M-219,-232L-419,-46L-124,-99Z" fill="#ebf7e4" stroke="#ebf7e4" stroke-width="1.51"/><path d="M-192,2743L-450,2892L-149,2939Z" fill="#91aeca" stroke="#91aeca" stroke-width="1.51"/><path d="M-450,2892L-440,3108L-149,2939Z" fill="#91aac8" stroke="#91aac8" stroke-width="1.51"/><path d="M-248,1668L-427,1900L-209,1928Z" fill="#acd9db" stroke="#acd9db" stroke-width="1.51"/><path d="M-359,141L-322,385L-162,287Z" fill="#e2f4dc" stroke="#e2f4dc" stroke-width="1.51"/><path d="M-305,2584L-450,2892L-192,2743Z" fill="#95b4ce" stroke="#95b4ce" stroke-width="1.51"/><path d="M-300,2272L-305,2584L-202,2469Z" fill="#99c0d2" stroke="#99c0d2" stroke-width="1.51"/><path d="M-427,1900L-358,2030L-209,1928Z" fill="#a8d6de" stroke="#a8d6de" stroke-width="1.51"/><path d="M-264,996L-315,1471L-245,1126Z" fill="#c3e8d0" stroke="#c3e8d0" stroke-width="1.51"/><path d="M-315,1471L-427,1900L-248,1668Z" fill="#b2ddd9" stroke="#b2ddd9" stroke-width="1.51"/><path d="M-348,750L-315,1471L-264,996Z" fill="#c9eacf" stroke="#c9eacf" stroke-width="1.51"/><path d="M-348,750L-427,1900L-315,1471Z" fill="#bee6d5" stroke="#bee6d5" stroke-width="1.51"/><path d="M-358,2030L-427,1900L-300,2272Z" fill="#a6d2dd" stroke="#a6d2dd" stroke-width="1.51"/><path d="M-427,1900L-450,2892L-300,2272Z" fill="#9fc6d8" stroke="#9fc6d8" stroke-width="1.51"/><path d="M-450,2892L-305,2584L-300,2272Z" fill="#99bbd2" stroke="#99bbd2" stroke-width="1.51"/><path d="M-359,141L-419,-46L-348,750Z" fill="#e5f5df" stroke="#e5f5df" stroke-width="1.51"/><path d="M-359,141L-348,750L-322,385Z" fill="#e1f3da" stroke="#e1f3da" stroke-width="1.51"/><path d="M-419,-46L-427,1900L-348,750Z" fill="#d5efd3" stroke="#d5efd3" stroke-width="1.51"/></svg>