<svg xmlns="http://www.w3.org/2000/svg" width="1920" height="2000"><path d="M-8,2299L-300,2242L90,2324Z" fill="#859bb5" stroke="#859bb5" stroke-width="1.51"/><path d="M-219,-262L-70,-266L392,-292Z" fill="#e4f5dd" stroke="#e4f5dd" stroke-width="1.51"/><path d="M557,2328L90,2324L1664,2397Z" fill="#5e8aa3" stroke="#5e8aa3" stroke-width="1.51"/><path d="M1019,2339L557,2328L1664,2397Z" fill="#4782a9" stroke="#4782a9" stroke-width="1.51"/><path d="M899,-306L1563,-276L1899,-327Z" fill="#a3cddb" stroke="#a3cddb" stroke-width="1.51"/><path d="M392,-292L899,-306L2240,-374Z" fill="#afdbdc" stroke="#afdbdc" stroke-width="1.51"/><path d="M899,-306L1899,-327L2240,-374Z" fill="#9cc1d5" stroke="#9cc1d5" stroke-width="1.51"/><path d="M2319,796L2065,860L2338,1028Z" fill="#598da9" stroke="#598da9" stroke-width="1.51"/><path d="M2088,1082L2137,1245L2338,1028Z" fill="#4889b0" stroke="#4889b0" stroke-width="1.51"/><path d="M2031,388L2111,738L2363,695Z" fill="#6e98a9" stroke="#6e98a9" stroke-width="1.51"/><path d="M2319,796L2338,1028L2363,695Z" fill="#5b88a2" stroke="#5b88a2" stroke-width="1.51"/><path d="M2240,-374L2196,-154L2365,310Z" fill="#859ab5" stroke="#859ab5" stroke-width="1.51"/><path d="M2196,-154L2197,148L2365,310Z" fill="#8199b1" stroke="#8199b1" stroke-width="1.51"/><path d="M2031,388L2363,695L2365,310Z" fill="#7494a7" stroke="#7494a7" stroke-width="1.51"/><path d="M2126,1668L2246,1865L2368,1558Z" fill="#1f6da7" stroke="#1f6da7" stroke-width="1.51"/><path d="M2119,1453L2126,1668L2368,1558Z" fill="#2876ae" stroke="#2876ae" stroke-width="1.51"/><path d="M2338,1028L2137,1245L2368,1558Z" fill="#3a7fae" stroke="#3a7fae" stroke-width="1.51"/><path d="M2137,1245L2119,1453L2368,1558Z" fill="#307eb2" stroke="#307eb2" stroke-width="1.51"/><path d="M2363,695L2338,1028L2368,1558Z" fill="#4880a6" stroke="#4880a6" stroke-width="1.51"/><path d="M1846,2387L1664,2397L2368,2393Z" fill="#0e5899" stroke="#0e5899" stroke-width="1.51"/><path d="M1995,2356L1846,2387L2368,2393Z" fill="#095295" stroke="#095295" stroke-width="1.51"/><path d="M2248,2165L1995,2356L2368,2393Z" fill="#0a4f91" stroke="#0a4f91" stroke-width="1.51"/><path d="M2368,1558L2246,1865L2368,2393Z" fill="#135c9c" stroke="#135c9c" stroke-width="1.51"/><path d="M2246,1865L2248,2165L2368,2393Z" fill="#095396" stroke="#095396" stroke-width="1.51"/><path d="M2197,148L2031,388L2365,310Z" fill="#7e9baf" stroke="#7e9baf" stroke-width="1.51"/><path d="M2111,738L2319,796L2363,695Z" fill="#638fa5" stroke="#638fa5" stroke-width="1.51"/><path d="M2246,1865L2046,2065L2248,2165Z" fill="#0c60a2" stroke="#0c60a2" stroke-width="1.51"/><path d="M2065,860L2088,1082L2338,1028Z" fill="#518fb0" stroke="#518fb0" stroke-width="1.51"/><path d="M2111,738L2065,860L2319,796Z" fill="#6194ac" stroke="#6194ac" stroke-width="1.51"/><path d="M2196,-154L1986,-65L2197,148Z" fill="#88a3bd" stroke="#88a3bd" stroke-width="1.51"/><path d="M1986,-65L1991,118L2197,148Z" fill="#87a6be" stroke="#87a6be" stroke-width="1.51"/><path d="M1952,-178L2196,-154L2240,-374Z" fill="#8ea5c3" stroke="#8ea5c3" stroke-width="1.51"/><path d="M1899,-327L1952,-178L2240,-374Z" fill="#92acca" stroke="#92acca" stroke-width="1.51"/><path d="M2126,1668L1969,1796L2246,1865Z" fill="#1b71ad" stroke="#1b71ad" stroke-width="1.51"/><path d="M1969,1796L2046,2065L2246,1865Z" fill="#146bab" stroke="#146bab" stroke-width="1.51"/><path d="M2046,2065L1995,2356L2248,2165Z" fill="#0a5b9e" stroke="#0a5b9e" stroke-width="1.51"/><path d="M1991,118L2031,388L2197,148Z" fill="#82a4b9" stroke="#82a4b9" stroke-width="1.51"/><path d="M1952,-178L1986,-65L2196,-154Z" fill="#8daac5" stroke="#8daac5" stroke-width="1.51"/><path d="M1969,1796L1888,2009L2046,2065Z" fill="#146fb0" stroke="#146fb0" stroke-width="1.51"/><path d="M2065,860L1880,988L2088,1082Z" fill="#5599b8" stroke="#5599b8" stroke-width="1.51"/><path d="M2031,388L1700,665L2111,738Z" fill="#73a5b5" stroke="#73a5b5" stroke-width="1.51"/><path d="M2119,1453L1851,1577L2126,1668Z" fill="#2880b8" stroke="#2880b8" stroke-width="1.51"/><path d="M1855,1268L2119,1453L2137,1245Z" fill="#388cbe" stroke="#388cbe" stroke-width="1.51"/><path d="M2088,1082L1855,1268L2137,1245Z" fill="#4391bc" stroke="#4391bc" stroke-width="1.51"/><path d="M1877,1072L1855,1268L2088,1082Z" fill="#4a98bd" stroke="#4a98bd" stroke-width="1.51"/><path d="M1851,1577L1969,1796L2126,1668Z" fill="#217db7" stroke="#217db7" stroke-width="1.51"/><path d="M1855,1268L1851,1577L2119,1453Z" fill="#338cbf" stroke="#338cbf" stroke-width="1.51"/><path d="M1700,665L2065,860L2111,738Z" fill="#69a1b6" stroke="#69a1b6" stroke-width="1.51"/><path d="M899,-306L1133,-232L1563,-276Z" fill="#acd9db" stroke="#acd9db" stroke-width="1.51"/><path d="M1817,341L1700,665L2031,388Z" fill="#7dadba" stroke="#7dadba" stroke-width="1.51"/><path d="M1991,118L1882,130L2031,388Z" fill="#85aabe" stroke="#85aabe" stroke-width="1.51"/><path d="M1882,130L1817,341L2031,388Z" fill="#84adbd" stroke="#84adbd" stroke-width="1.51"/><path d="M1888,2009L1995,2356L2046,2065Z" fill="#0c65a7" stroke="#0c65a7" stroke-width="1.51"/><path d="M1880,988L1877,1072L2088,1082Z" fill="#519bbc" stroke="#519bbc" stroke-width="1.51"/><path d="M1888,2009L1846,2387L1995,2356Z" fill="#1262a3" stroke="#1262a3" stroke-width="1.51"/><path d="M1700,665L1880,988L2065,860Z" fill="#64a3b9" stroke="#64a3b9" stroke-width="1.51"/><path d="M1986,-65L1882,130L1991,118Z" fill="#89acc3" stroke="#89acc3" stroke-width="1.51"/><path d="M1821,1789L1888,2009L1969,1796Z" fill="#1d78b4" stroke="#1d78b4" stroke-width="1.51"/><path d="M1851,1577L1821,1789L1969,1796Z" fill="#2380b8" stroke="#2380b8" stroke-width="1.51"/><path d="M1806,4L1882,130L1986,-65Z" fill="#8cb1c5" stroke="#8cb1c5" stroke-width="1.51"/><path d="M1952,-178L1806,4L1986,-65Z" fill="#8eb0c7" stroke="#8eb0c7" stroke-width="1.51"/><path d="M1664,2397L1846,2387L1888,2009Z" fill="#1867a5" stroke="#1867a5" stroke-width="1.51"/><path d="M1899,-327L1806,4L1952,-178Z" fill="#92b3cb" stroke="#92b3cb" stroke-width="1.51"/><path d="M1523,1424L1579,1587L1851,1577Z" fill="#3696c4" stroke="#3696c4" stroke-width="1.51"/><path d="M1523,1424L1851,1577L1855,1268Z" fill="#3997c4" stroke="#3997c4" stroke-width="1.51"/><path d="M1649,1215L1523,1424L1855,1268Z" fill="#42a0c7" stroke="#42a0c7" stroke-width="1.51"/><path d="M1649,1215L1855,1268L1877,1072Z" fill="#4a9ec2" stroke="#4a9ec2" stroke-width="1.51"/><path d="M1700,665L1486,826L1880,988Z" fill="#69aebe" stroke="#69aebe" stroke-width="1.51"/><path d="M1821,1789L1607,1940L1888,2009Z" fill="#207cb6" stroke="#207cb6" stroke-width="1.51"/><path d="M1607,1940L1664,2397L1888,2009Z" fill="#1c73b0" stroke="#1c73b0" stroke-width="1.51"/><path d="M1563,-276L1806,4L1899,-327Z" fill="#96bbcf" stroke="#96bbcf" stroke-width="1.51"/><path d="M1549,405L1700,665L1817,341Z" fill="#80b6be" stroke="#80b6be" stroke-width="1.51"/><path d="M1479,162L1817,341L1882,130Z" fill="#8bb8c3" stroke="#8bb8c3" stroke-width="1.51"/><path d="M1649,1215L1877,1072L1880,988Z" fill="#51a1c0" stroke="#51a1c0" stroke-width="1.51"/><path d="M1806,4L1479,162L1882,130Z" fill="#8eb9c7" stroke="#8eb9c7" stroke-width="1.51"/><path d="M1486,826L1649,1215L1880,988Z" fill="#5aaac1" stroke="#5aaac1" stroke-width="1.51"/><path d="M1579,1587L1821,1789L1851,1577Z" fill="#2b8abe" stroke="#2b8abe" stroke-width="1.51"/><path d="M335,2308L90,2324L557,2328Z" fill="#7895a8" stroke="#7895a8" stroke-width="1.51"/><path d="M1133,-232L1286,-207L1563,-276Z" fill="#a6d4dc" stroke="#a6d4dc" stroke-width="1.51"/><path d="M1563,-276L1432,-107L1806,4Z" fill="#98c3d1" stroke="#98c3d1" stroke-width="1.51"/><path d="M1479,162L1549,405L1817,341Z" fill="#8bbdc4" stroke="#8bbdc4" stroke-width="1.51"/><path d="M1493,1705L1607,1940L1821,1789Z" fill="#2988bc" stroke="#2988bc" stroke-width="1.51"/><path d="M1579,1587L1493,1705L1821,1789Z" fill="#2e8ec0" stroke="#2e8ec0" stroke-width="1.51"/><path d="M1607,1940L1331,2197L1664,2397Z" fill="#2779b1" stroke="#2779b1" stroke-width="1.51"/><path d="M1432,-107L1479,162L1806,4Z" fill="#95c2ce" stroke="#95c2ce" stroke-width="1.51"/><path d="M1486,826L1371,1197L1649,1215Z" fill="#5bb2c8" stroke="#5bb2c8" stroke-width="1.51"/><path d="M1331,2197L1019,2339L1664,2397Z" fill="#327caf" stroke="#327caf" stroke-width="1.51"/><path d="M1549,405L1497,651L1700,665Z" fill="#7ebabe" stroke="#7ebabe" stroke-width="1.51"/><path d="M1497,651L1486,826L1700,665Z" fill="#75b8bf" stroke="#75b8bf" stroke-width="1.51"/><path d="M1479,162L1420,282L1549,405Z" fill="#91c5c8" stroke="#91c5c8" stroke-width="1.51"/><path d="M1371,1197L1523,1424L1649,1215Z" fill="#4caacc" stroke="#4caacc" stroke-width="1.51"/><path d="M1493,1705L1331,1866L1607,1940Z" fill="#328fc0" stroke="#328fc0" stroke-width="1.51"/><path d="M1331,1866L1331,2197L1607,1940Z" fill="#308abe" stroke="#308abe" stroke-width="1.51"/><path d="M1319,550L1497,651L1549,405Z" fill="#84c1c3" stroke="#84c1c3" stroke-width="1.51"/><path d="M1523,1424L1406,1455L1579,1587Z" fill="#40a1ca" stroke="#40a1ca" stroke-width="1.51"/><path d="M1406,1455L1493,1705L1579,1587Z" fill="#3c9cc7" stroke="#3c9cc7" stroke-width="1.51"/><path d="M1371,1197L1406,1455L1523,1424Z" fill="#48abcf" stroke="#48abcf" stroke-width="1.51"/><path d="M1341,388L1319,550L1549,405Z" fill="#8bc6c7" stroke="#8bc6c7" stroke-width="1.51"/><path d="M1286,-207L1432,-107L1563,-276Z" fill="#a1ced8" stroke="#a1ced8" stroke-width="1.51"/><path d="M1331,1866L1208,2031L1331,2197Z" fill="#388fc0" stroke="#388fc0" stroke-width="1.51"/><path d="M1135,997L1371,1197L1486,826Z" fill="#66becb" stroke="#66becb" stroke-width="1.51"/><path d="M1406,1455L1284,1544L1493,1705Z" fill="#41a2ca" stroke="#41a2ca" stroke-width="1.51"/><path d="M1420,282L1341,388L1549,405Z" fill="#8fc6c8" stroke="#8fc6c8" stroke-width="1.51"/><path d="M1432,-107L1300,-99L1479,162Z" fill="#9ccdd4" stroke="#9ccdd4" stroke-width="1.51"/><path d="M1300,-99L1135,74L1479,162Z" fill="#9ed2d4" stroke="#9ed2d4" stroke-width="1.51"/><path d="M1213,766L1135,997L1486,826Z" fill="#75c4c8" stroke="#75c4c8" stroke-width="1.51"/><path d="M1213,766L1486,826L1497,651Z" fill="#78c0c4" stroke="#78c0c4" stroke-width="1.51"/><path d="M1319,550L1213,766L1497,651Z" fill="#81c6c4" stroke="#81c6c4" stroke-width="1.51"/><path d="M1284,1544L1331,1866L1493,1705Z" fill="#3b9cc7" stroke="#3b9cc7" stroke-width="1.51"/><path d="M1135,74L1420,282L1479,162Z" fill="#99ced0" stroke="#99ced0" stroke-width="1.51"/><path d="M1284,1544L1164,1604L1331,1866Z" fill="#44a3c9" stroke="#44a3c9" stroke-width="1.51"/><path d="M1371,1197L1114,1458L1406,1455Z" fill="#4fb2d2" stroke="#4fb2d2" stroke-width="1.51"/><path d="M1286,-207L1300,-99L1432,-107Z" fill="#a2d2d9" stroke="#a2d2d9" stroke-width="1.51"/><path d="M1114,1458L1284,1544L1406,1455Z" fill="#4cadce" stroke="#4cadce" stroke-width="1.51"/><path d="M1135,74L1341,388L1420,282Z" fill="#98d0ce" stroke="#98d0ce" stroke-width="1.51"/><path d="M1128,26L1135,74L1300,-99Z" fill="#a5d7d3" stroke="#a5d7d3" stroke-width="1.51"/><path d="M1180,470L1319,550L1341,388Z" fill="#8eccc8" stroke="#8eccc8" stroke-width="1.51"/><path d="M1135,74L1180,470L1341,388Z" fill="#99d2ca" stroke="#99d2ca" stroke-width="1.51"/><path d="M1135,997L1067,1016L1371,1197Z" fill="#6bc1cb" stroke="#6bc1cb" stroke-width="1.51"/><path d="M1067,1016L1114,1458L1371,1197Z" fill="#61bcce" stroke="#61bcce" stroke-width="1.51"/><path d="M1164,1604L1032,1865L1331,1866Z" fill="#49a0c4" stroke="#49a0c4" stroke-width="1.51"/><path d="M1180,470L1213,766L1319,550Z" fill="#89cbc4" stroke="#89cbc4" stroke-width="1.51"/><path d="M1032,1865L1208,2031L1331,1866Z" fill="#4498c1" stroke="#4498c1" stroke-width="1.51"/><path d="M1208,2031L1102,2080L1331,2197Z" fill="#3e8dbb" stroke="#3e8dbb" stroke-width="1.51"/><path d="M1102,2080L1019,2339L1331,2197Z" fill="#4389b3" stroke="#4389b3" stroke-width="1.51"/><path d="M1180,470L1039,568L1213,766Z" fill="#8dcfc2" stroke="#8dcfc2" stroke-width="1.51"/><path d="M1286,-207L1133,-232L1300,-99Z" fill="#a8d7d9" stroke="#a8d7d9" stroke-width="1.51"/><path d="M1133,-232L1128,26L1300,-99Z" fill="#a8d8d6" stroke="#a8d8d6" stroke-width="1.51"/><path d="M1135,74L867,237L1180,470Z" fill="#a3d8c8" stroke="#a3d8c8" stroke-width="1.51"/><path d="M1114,1458L1164,1604L1284,1544Z" fill="#51adcb" stroke="#51adcb" stroke-width="1.51"/><path d="M392,-292L583,-246L899,-306Z" fill="#cbebcf" stroke="#cbebcf" stroke-width="1.51"/><path d="M816,1100L815,1371L1067,1016Z" fill="#77c7c6" stroke="#77c7c6" stroke-width="1.51"/><path d="M1067,1016L815,1371L1114,1458Z" fill="#69c0cb" stroke="#69c0cb" stroke-width="1.51"/><path d="M953,-114L1128,26L1133,-232Z" fill="#addcd4" stroke="#addcd4" stroke-width="1.51"/><path d="M867,237L922,485L1180,470Z" fill="#9fd8c3" stroke="#9fd8c3" stroke-width="1.51"/><path d="M1032,1865L1102,2080L1208,2031Z" fill="#4997bd" stroke="#4997bd" stroke-width="1.51"/><path d="M799,928L1067,1016L1213,766Z" fill="#7fccc4" stroke="#7fccc4" stroke-width="1.51"/><path d="M1039,568L799,928L1213,766Z" fill="#8ad0c1" stroke="#8ad0c1" stroke-width="1.51"/><path d="M1067,1016L1135,997L1213,766Z" fill="#77c7c7" stroke="#77c7c7" stroke-width="1.51"/><path d="M922,485L1039,568L1180,470Z" fill="#97d4c2" stroke="#97d4c2" stroke-width="1.51"/><path d="M1114,1458L743,1633L1164,1604Z" fill="#5cb2c6" stroke="#5cb2c6" stroke-width="1.51"/><path d="M743,1633L1032,1865L1164,1604Z" fill="#59abc2" stroke="#59abc2" stroke-width="1.51"/><path d="M748,2252L557,2328L1019,2339Z" fill="#5e8da5" stroke="#5e8da5" stroke-width="1.51"/><path d="M743,1633L923,1884L1032,1865Z" fill="#5ea8be" stroke="#5ea8be" stroke-width="1.51"/><path d="M885,545L799,928L1039,568Z" fill="#94d4bc" stroke="#94d4bc" stroke-width="1.51"/><path d="M880,2128L1019,2339L1102,2080Z" fill="#4e8fb2" stroke="#4e8fb2" stroke-width="1.51"/><path d="M1128,26L867,237L1135,74Z" fill="#a7dacc" stroke="#a7dacc" stroke-width="1.51"/><path d="M953,-114L867,237L1128,26Z" fill="#acddcd" stroke="#acddcd" stroke-width="1.51"/><path d="M899,-306L953,-114L1133,-232Z" fill="#b3e0d5" stroke="#b3e0d5" stroke-width="1.51"/><path d="M1032,1865L923,1884L1102,2080Z" fill="#519dbd" stroke="#519dbd" stroke-width="1.51"/><path d="M815,1371L743,1633L1114,1458Z" fill="#68b9c6" stroke="#68b9c6" stroke-width="1.51"/><path d="M923,1884L880,2128L1102,2080Z" fill="#5399b9" stroke="#5399b9" stroke-width="1.51"/><path d="M799,928L816,1100L1067,1016Z" fill="#7fcdc3" stroke="#7fcdc3" stroke-width="1.51"/><path d="M716,-69L867,237L953,-114Z" fill="#b5e1ca" stroke="#b5e1ca" stroke-width="1.51"/><path d="M922,485L885,545L1039,568Z" fill="#9ad7bf" stroke="#9ad7bf" stroke-width="1.51"/><path d="M880,2128L748,2252L1019,2339Z" fill="#578fac" stroke="#578fac" stroke-width="1.51"/><path d="M602,764L799,928L885,545Z" fill="#9ad6bb" stroke="#9ad6bb" stroke-width="1.51"/><path d="M867,237L621,435L922,485Z" fill="#aadebf" stroke="#aadebf" stroke-width="1.51"/><path d="M743,1633L658,1839L923,1884Z" fill="#68abbc" stroke="#68abbc" stroke-width="1.51"/><path d="M899,-306L716,-69L953,-114Z" fill="#bae4d0" stroke="#bae4d0" stroke-width="1.51"/><path d="M716,-69L599,198L867,237Z" fill="#b8e3c5" stroke="#b8e3c5" stroke-width="1.51"/><path d="M621,435L885,545L922,485Z" fill="#a5dbbd" stroke="#a5dbbd" stroke-width="1.51"/><path d="M658,1839L880,2128L923,1884Z" fill="#61a1b8" stroke="#61a1b8" stroke-width="1.51"/><path d="M658,1839L585,2147L880,2128Z" fill="#689fb4" stroke="#689fb4" stroke-width="1.51"/><path d="M583,-246L716,-69L899,-306Z" fill="#c2e7cf" stroke="#c2e7cf" stroke-width="1.51"/><path d="M581,1276L815,1371L816,1100Z" fill="#7fc8c5" stroke="#7fc8c5" stroke-width="1.51"/><path d="M621,435L602,764L885,545Z" fill="#a6dcb9" stroke="#a6dcb9" stroke-width="1.51"/><path d="M599,198L621,435L867,237Z" fill="#b5e2bf" stroke="#b5e2bf" stroke-width="1.51"/><path d="M585,2147L748,2252L880,2128Z" fill="#6396ad" stroke="#6396ad" stroke-width="1.51"/><path d="M603,1119L581,1276L816,1100Z" fill="#88cdc2" stroke="#88cdc2" stroke-width="1.51"/><path d="M640,1656L658,1839L743,1633Z" fill="#71b1bc" stroke="#71b1bc" stroke-width="1.51"/><path d="M602,764L629,953L799,928Z" fill="#96d6bc" stroke="#96d6bc" stroke-width="1.51"/><path d="M640,1656L743,1633L815,1371Z" fill="#73b9c1" stroke="#73b9c1" stroke-width="1.51"/><path d="M581,1276L640,1656L815,1371Z" fill="#7bc2c4" stroke="#7bc2c4" stroke-width="1.51"/><path d="M799,928L629,953L816,1100Z" fill="#8ad1c0" stroke="#8ad1c0" stroke-width="1.51"/><path d="M629,953L603,1119L816,1100Z" fill="#8bd0c0" stroke="#8bd0c0" stroke-width="1.51"/><path d="M489,-55L599,198L716,-69Z" fill="#c2e7c5" stroke="#c2e7c5" stroke-width="1.51"/><path d="M585,2147L557,2328L748,2252Z" fill="#6994a7" stroke="#6994a7" stroke-width="1.51"/><path d="M581,1276L279,1475L640,1656Z" fill="#85c3c4" stroke="#85c3c4" stroke-width="1.51"/><path d="M583,-246L489,-55L716,-69Z" fill="#c7e9ca" stroke="#c7e9ca" stroke-width="1.51"/><path d="M344,620L602,764L621,435Z" fill="#afe0b8" stroke="#afe0b8" stroke-width="1.51"/><path d="M350,510L344,620L621,435Z" fill="#b7e3bc" stroke="#b7e3bc" stroke-width="1.51"/><path d="M602,764L458,800L629,953Z" fill="#9fd9ba" stroke="#9fd9ba" stroke-width="1.51"/><path d="M352,2094L585,2147L658,1839Z" fill="#74a3b4" stroke="#74a3b4" stroke-width="1.51"/><path d="M640,1656L289,1757L658,1839Z" fill="#7ab2bc" stroke="#7ab2bc" stroke-width="1.51"/><path d="M289,1757L352,2094L658,1839Z" fill="#7cacba" stroke="#7cacba" stroke-width="1.51"/><path d="M396,1237L279,1475L581,1276Z" fill="#8ecdc9" stroke="#8ecdc9" stroke-width="1.51"/><path d="M489,-55L377,168L599,198Z" fill="#c6e9c5" stroke="#c6e9c5" stroke-width="1.51"/><path d="M344,620L458,800L602,764Z" fill="#abdeba" stroke="#abdeba" stroke-width="1.51"/><path d="M599,198L377,168L621,435Z" fill="#bfe6bf" stroke="#bfe6bf" stroke-width="1.51"/><path d="M377,168L350,510L621,435Z" fill="#bee6bf" stroke="#bee6bf" stroke-width="1.51"/><path d="M279,1475L289,1757L640,1656Z" fill="#85bbc1" stroke="#85bbc1" stroke-width="1.51"/><path d="M458,800L603,1119L629,953Z" fill="#98d6bd" stroke="#98d6bd" stroke-width="1.51"/><path d="M396,1237L581,1276L603,1119Z" fill="#8ecec3" stroke="#8ecec3" stroke-width="1.51"/><path d="M458,800L396,1237L603,1119Z" fill="#98d5c0" stroke="#98d5c0" stroke-width="1.51"/><path d="M252,281L350,510L377,168Z" fill="#c8e9c3" stroke="#c8e9c3" stroke-width="1.51"/><path d="M297,1222L396,1237L458,800Z" fill="#9bd6c4" stroke="#9bd6c4" stroke-width="1.51"/><path d="M335,2308L557,2328L585,2147Z" fill="#7196a8" stroke="#7196a8" stroke-width="1.51"/><path d="M392,-292L489,-55L583,-246Z" fill="#cfedce" stroke="#cfedce" stroke-width="1.51"/><path d="M352,2094L335,2308L585,2147Z" fill="#769bae" stroke="#769bae" stroke-width="1.51"/><path d="M-70,-266L230,-215L392,-292Z" fill="#dff3d8" stroke="#dff3d8" stroke-width="1.51"/><path d="M86,1029L297,1222L458,800Z" fill="#a4dac5" stroke="#a4dac5" stroke-width="1.51"/><path d="M392,-292L230,-215L489,-55Z" fill="#d4eed1" stroke="#d4eed1" stroke-width="1.51"/><path d="M230,-215L377,168L489,-55Z" fill="#d0edcd" stroke="#d0edcd" stroke-width="1.51"/><path d="M289,1757L155,1828L352,2094Z" fill="#85b0be" stroke="#85b0be" stroke-width="1.51"/><path d="M297,1222L279,1475L396,1237Z" fill="#95cfca" stroke="#95cfca" stroke-width="1.51"/><path d="M344,620L43,833L458,800Z" fill="#b3e1bf" stroke="#b3e1bf" stroke-width="1.51"/><path d="M43,833L86,1029L458,800Z" fill="#aedfc4" stroke="#aedfc4" stroke-width="1.51"/><path d="M230,-215L26,18L377,168Z" fill="#d6efd0" stroke="#d6efd0" stroke-width="1.51"/><path d="M155,1828L109,2110L352,2094Z" fill="#84aabc" stroke="#84aabc" stroke-width="1.51"/><path d="M252,281L186,298L350,510Z" fill="#c8e9c3" stroke="#c8e9c3" stroke-width="1.51"/><path d="M109,2110L335,2308L352,2094Z" fill="#7f9fb3" stroke="#7f9fb3" stroke-width="1.51"/><path d="M26,18L252,281L377,168Z" fill="#d1edca" stroke="#d1edca" stroke-width="1.51"/><path d="M26,18L186,298L252,281Z" fill="#d2edcb" stroke="#d2edcb" stroke-width="1.51"/><path d="M279,1475L28,1663L289,1757Z" fill="#8ebfc6" stroke="#8ebfc6" stroke-width="1.51"/><path d="M112,1289L279,1475L297,1222Z" fill="#98d0cd" stroke="#98d0cd" stroke-width="1.51"/><path d="M109,2110L90,2324L335,2308Z" fill="#7f9bb1" stroke="#7f9bb1" stroke-width="1.51"/><path d="M33,559L43,833L344,620Z" fill="#bce5c1" stroke="#bce5c1" stroke-width="1.51"/><path d="M33,559L344,620L350,510Z" fill="#bfe6bf" stroke="#bfe6bf" stroke-width="1.51"/><path d="M186,298L33,559L350,510Z" fill="#c6e9c3" stroke="#c6e9c3" stroke-width="1.51"/><path d="M8,1546L28,1663L279,1475Z" fill="#94c4cb" stroke="#94c4cb" stroke-width="1.51"/><path d="M28,1663L155,1828L289,1757Z" fill="#8cb8c4" stroke="#8cb8c4" stroke-width="1.51"/><path d="M86,1029L112,1289L297,1222Z" fill="#a1d6cc" stroke="#a1d6cc" stroke-width="1.51"/><path d="M112,1289L-1,1420L279,1475Z" fill="#98cdcf" stroke="#98cdcf" stroke-width="1.51"/><path d="M-1,1420L8,1546L279,1475Z" fill="#96c9ce" stroke="#96c9ce" stroke-width="1.51"/><path d="M-44,2055L109,2110L155,1828Z" fill="#88acc1" stroke="#88acc1" stroke-width="1.51"/><path d="M-70,-266L26,18L230,-215Z" fill="#dff2d9" stroke="#dff2d9" stroke-width="1.51"/><path d="M26,18L-205,258L186,298Z" fill="#d6efd0" stroke="#d6efd0" stroke-width="1.51"/><path d="M-94,516L33,559L186,298Z" fill="#caebc8" stroke="#caebc8" stroke-width="1.51"/><path d="M-205,258L-94,516L186,298Z" fill="#d2eecc" stroke="#d2eecc" stroke-width="1.51"/><path d="M-8,2299L90,2324L109,2110Z" fill="#829cb4" stroke="#829cb4" stroke-width="1.51"/><path d="M86,1029L-162,1197L112,1289Z" fill="#a6d8d0" stroke="#a6d8d0" stroke-width="1.51"/><path d="M28,1663L-112,1770L155,1828Z" fill="#8fbac8" stroke="#8fbac8" stroke-width="1.51"/><path d="M-112,1770L-44,2055L155,1828Z" fill="#8db3c6" stroke="#8db3c6" stroke-width="1.51"/><path d="M-162,611L-124,811L33,559Z" fill="#c3e8c8" stroke="#c3e8c8" stroke-width="1.51"/><path d="M33,559L-124,811L43,833Z" fill="#bde5c7" stroke="#bde5c7" stroke-width="1.51"/><path d="M-44,2055L-8,2299L109,2110Z" fill="#85a3bb" stroke="#85a3bb" stroke-width="1.51"/><path d="M-162,1197L-1,1420L112,1289Z" fill="#a0d4d4" stroke="#a0d4d4" stroke-width="1.51"/><path d="M-124,811L-264,966L86,1029Z" fill="#b4e1ce" stroke="#b4e1ce" stroke-width="1.51"/><path d="M43,833L-124,811L86,1029Z" fill="#b3e1ca" stroke="#b3e1ca" stroke-width="1.51"/><path d="M-264,966L-245,1096L86,1029Z" fill="#b0dfd1" stroke="#b0dfd1" stroke-width="1.51"/><path d="M-245,1096L-162,1197L86,1029Z" fill="#acdbd3" stroke="#acdbd3" stroke-width="1.51"/><path d="M-70,-266L-215,42L26,18Z" fill="#e0f3db" stroke="#e0f3db" stroke-width="1.51"/><path d="M-215,42L-205,258L26,18Z" fill="#ddf2d7" stroke="#ddf2d7" stroke-width="1.51"/><path d="M-94,516L-162,611L33,559Z" fill="#c8e9c9" stroke="#c8e9c9" stroke-width="1.51"/><path d="M-219,-262L-215,42L-70,-266Z" fill="#e6f6e0" stroke="#e6f6e0" stroke-width="1.51"/><path d="M-44,2055L-300,2242L-8,2299Z" fill="#88a2bc" stroke="#88a2bc" stroke-width="1.51"/><path d="M8,1546L-248,1638L28,1663Z" fill="#96c3cf" stroke="#96c3cf" stroke-width="1.51"/><path d="M-248,1638L-112,1770L28,1663Z" fill="#95bfce" stroke="#95bfce" stroke-width="1.51"/><path d="M-1,1420L-315,1441L8,1546Z" fill="#9cccd4" stroke="#9cccd4" stroke-width="1.51"/><path d="M-315,1441L-248,1638L8,1546Z" fill="#9dc9d4" stroke="#9dc9d4" stroke-width="1.51"/><path d="M-162,1197L-315,1441L-1,1420Z" fill="#a2d4d9" stroke="#a2d4d9" stroke-width="1.51"/><path d="M-112,1770L-358,2000L-44,2055Z" fill="#90b2c9" stroke="#90b2c9" stroke-width="1.51"/><path d="M-205,258L-322,355L-94,516Z" fill="#d6efd1" stroke="#d6efd1" stroke-width="1.51"/><path d="M-358,2000L-300,2242L-44,2055Z" fill="#8ea9c6" stroke="#8ea9c6" stroke-width="1.51"/><path d="M-162,611L-348,720L-124,811Z" fill="#c4e8cd" stroke="#c4e8cd" stroke-width="1.51"/><path d="M-427,1870L-358,2000L-112,1770Z" fill="#96b7cf" stroke="#96b7cf" stroke-width="1.51"/><path d="M-322,355L-162,611L-94,516Z" fill="#cfecce" stroke="#cfecce" stroke-width="1.51"/><path d="M-219,-262L-419,-76L-215,42Z" fill="#e8f6e1" stroke="#e8f6e1" stroke-width="1.51"/><path d="M-248,1638L-427,1870L-112,1770Z" fill="#97bdd1" stroke="#97bdd1" stroke-width="1.51"/><path d="M-348,720L-264,966L-124,811Z" fill="#bfe6d0" stroke="#bfe6d0" stroke-width="1.51"/><path d="M-215,42L-359,111L-205,258Z" fill="#e0f3da" stroke="#e0f3da" stroke-width="1.51"/><path d="M-245,1096L-315,1441L-162,1197Z" fill="#aad9d9" stroke="#aad9d9" stroke-width="1.51"/><path d="M-322,355L-348,720L-162,611Z" fill="#cfeccf" stroke="#cfeccf" stroke-width="1.51"/><path d="M-359,111L-322,355L-205,258Z" fill="#def2d7" stroke="#def2d7" stroke-width="1.51"/><path d="M-419,-76L-359,111L-215,42Z" fill="#e5f5df" stroke="#e5f5df" stroke-width="1.51"/><path d="M-264,966L-315,1441L-245,1096Z" fill="#afdcd9" stroke="#afdcd9" stroke-width="1.51"/><path d="M-315,1441L-427,1870L-248,1638Z" fill="#9dc4d5" stroke="#9dc4d5" stroke-width="1.51"/><path d="M-348,720L-315,1441L-264,966Z" fill="#b5e1d7" stroke="#b5e1d7" stroke-width="1.51"/><path d="M-348,720L-427,1870L-315,1441Z" fill="#a9d7df" stroke="#a9d7df" stroke-width="1.51"/><path d="M-358,2000L-427,1870L-300,2242Z" fill="#94afcd" stroke="#94afcd" stroke-width="1.51"/><path d="M-359,111L-419,-76L-348,720Z" fill="#e0f3da" stroke="#e0f3da" stroke-width="1.51"/><path d="M-359,111L-348,720L-322,355Z" fill="#d9f0d5" stroke="#d9f0d5" stroke-width="1.51"/><path d="M-419,-76L-427,1870L-348,720Z" fill="#c4e8d5" stroke="#c4e8d5" stroke-width="1.51"/></svg>